<!-- icon666.com - MILLIONS vector ICONS FREE --><svg id="Layer_1" enable-background="new 0 0 511.696 511.696" viewBox="0 0 511.696 511.696" xmlns="http://www.w3.org/2000/svg"><path d="m380.452 297.679c-.649-12.169-12.11-14.864-22.044-17.07 12.966-16.724 20.01-36.295 19.216-55.28-.246-5.881-3.909-11.075-9.366-13.281-6.658-2.691-13.772-4.355-21.13-5.03 20.063-18.912 31.497-43.767 30.497-67.69-.246-5.881-3.909-11.075-9.366-13.281-23.699-9.578-53.155-6.161-78.934 8.694 24.671-40.673 14.072-108.213-25.516-132.35-4.947-3.189-11.302-3.189-16.25 0-40.401 24.633-50.452 94.132-24.136 134.683-26.665-16.816-57.916-21.087-82.811-11.026-5.458 2.206-9.121 7.399-9.366 13.281-1 23.923 10.434 48.779 30.497 67.69-7.359.675-14.472 2.339-21.131 5.029-5.458 2.206-9.121 7.399-9.366 13.281-.803 19.195 6.407 38.989 19.649 55.834-9.408 2.238-18.992 5.233-19.649 16.517-3.271 51.979 56.881 103.172 109.439 97.206v101.811c0 8.284 6.716 15 15 15s15-6.716 15-15v-101.849c52.659 6.207 113.043-45.09 109.767-97.169zm-63.055-19.015c-14.738 10.395-31.907 15.334-46.713 13.953v-7.857c9.564-28.171 47.203-52.331 76.056-47.593-3.134 15.115-13.862 30.579-29.343 41.497zm-76.989 13.711c-31.599 5.163-72.538-23.717-78.279-55.208 31.601-5.157 72.537 23.714 78.279 55.208zm106.331-141.208c-5.631 30.762-44.874 59.143-76.056 55.45v-7.857c9.564-28.172 47.203-52.331 76.056-47.593zm-91.056-116.713c22.431 22.845 22.426 72.948 0 95.789-22.43-22.846-22.425-72.95 0-95.789zm-44.617 130.425c15.48 10.917 26.209 26.381 29.342 41.496-31.598 5.165-72.539-23.719-78.279-55.208 15.29-2.119 33.458 2.795 48.937 13.712zm-19.595 186.135c-15.48-10.917-26.209-26.381-29.342-41.496 8.8-1.221 18.554-.098 28.199 3.145 3.406 1.639 6.855 3.086 10.333 4.335 19.272 9.28 36.303 29.321 39.747 47.727-15.289 2.12-33.457-2.794-48.937-13.711zm128.754 0c-15.481 10.918-33.646 15.833-48.938 13.711 5.741-31.496 46.691-60.372 78.279-55.207-3.132 15.115-13.86 30.578-29.341 41.496z"></path></svg>